<?xml version="1.0" encoding="UTF-8"?>
<svg xmlns="http://www.w3.org/2000/svg" xmlns:xlink="http://www.w3.org/1999/xlink" width="120px" height="px" viewBox="0 0 118 25" version="1.1">
<g id="surface1">
<path style=" stroke:none;fill-rule:nonzero;fill:rgb(30.19608%,41.960785%,99.607843%);fill-opacity:1;" d="M 33.867188 2.097656 C 33.507812 1.921875 33.355469 2.257812 33.148438 2.429688 C 33.074219 2.484375 33.015625 2.554688 32.953125 2.621094 C 32.433594 3.183594 31.824219 3.550781 31.027344 3.507812 C 29.859375 3.441406 28.867188 3.8125 27.988281 4.707031 C 27.800781 3.601562 27.179688 2.941406 26.234375 2.515625 C 25.742188 2.296875 25.242188 2.074219 24.894531 1.597656 C 24.652344 1.253906 24.585938 0.875 24.464844 0.5 C 24.390625 0.273438 24.3125 0.0429688 24.054688 0.00390625 C 23.773438 -0.0390625 23.664062 0.199219 23.554688 0.394531 C 23.113281 1.207031 22.945312 2.097656 22.960938 3 C 23 5.035156 23.851562 6.652344 25.542969 7.804688 C 25.734375 7.9375 25.785156 8.066406 25.722656 8.261719 C 25.609375 8.65625 25.472656 9.042969 25.351562 9.4375 C 25.273438 9.691406 25.15625 9.746094 24.890625 9.636719 C 23.960938 9.246094 23.15625 8.667969 22.449219 7.96875 C 21.246094 6.796875 20.15625 5.5 18.800781 4.488281 C 18.484375 4.25 18.164062 4.03125 17.835938 3.820312 C 16.449219 2.46875 18.015625 1.355469 18.378906 1.222656 C 18.757812 1.085938 18.511719 0.609375 17.285156 0.617188 C 16.058594 0.621094 14.9375 1.035156 13.511719 1.585938 C 13.300781 1.667969 13.082031 1.730469 12.855469 1.777344 C 11.558594 1.53125 10.214844 1.476562 8.808594 1.636719 C 6.160156 1.933594 4.042969 3.195312 2.488281 5.347656 C 0.621094 7.9375 0.179688 10.875 0.71875 13.945312 C 1.285156 17.175781 2.921875 19.851562 5.4375 21.945312 C 8.050781 24.117188 11.054688 25.179688 14.484375 24.976562 C 16.566406 24.855469 18.882812 24.574219 21.5 22.34375 C 22.15625 22.671875 22.851562 22.804688 24 22.90625 C 24.882812 22.988281 25.734375 22.859375 26.394531 22.722656 C 27.425781 22.503906 27.355469 21.539062 26.980469 21.363281 C 23.953125 19.941406 24.621094 20.519531 24.015625 20.050781 C 25.554688 18.21875 27.871094 16.3125 28.777344 10.136719 C 28.851562 9.648438 28.789062 9.339844 28.777344 8.945312 C 28.773438 8.703125 28.828125 8.609375 29.101562 8.582031 C 29.859375 8.492188 30.597656 8.28125 31.273438 7.910156 C 33.234375 6.828125 34.027344 5.054688 34.210938 2.929688 C 34.238281 2.605469 34.207031 2.269531 33.867188 2.097656 Z M 16.773438 21.230469 C 13.839844 18.90625 12.417969 18.140625 11.828125 18.171875 C 11.28125 18.207031 11.378906 18.839844 11.5 19.253906 C 11.625 19.660156 11.789062 19.941406 12.019531 20.300781 C 12.179688 20.535156 12.289062 20.890625 11.863281 21.152344 C 10.917969 21.742188 9.273438 20.953125 9.199219 20.917969 C 7.285156 19.78125 5.6875 18.285156 4.558594 16.234375 C 3.472656 14.261719 2.839844 12.148438 2.734375 9.890625 C 2.707031 9.347656 2.867188 9.152344 3.40625 9.054688 C 4.113281 8.921875 4.847656 8.894531 5.554688 9 C 8.550781 9.4375 11.097656 10.789062 13.234375 12.925781 C 14.457031 14.140625 15.378906 15.597656 16.328125 17.015625 C 17.339844 18.527344 18.425781 19.964844 19.8125 21.140625 C 20.300781 21.554688 20.691406 21.871094 21.066406 22.101562 C 19.9375 22.226562 18.058594 22.253906 16.773438 21.230469 Z M 18.179688 12.117188 C 18.179688 11.875 18.371094 11.679688 18.613281 11.679688 C 18.667969 11.679688 18.71875 11.691406 18.761719 11.707031 C 18.824219 11.730469 18.878906 11.761719 18.921875 11.8125 C 19 11.890625 19.042969 12 19.042969 12.117188 C 19.042969 12.359375 18.851562 12.550781 18.609375 12.550781 C 18.367188 12.550781 18.179688 12.359375 18.179688 12.117188 Z M 22.546875 14.375 C 22.269531 14.488281 21.988281 14.589844 21.71875 14.597656 C 21.300781 14.621094 20.84375 14.449219 20.597656 14.242188 C 20.214844 13.917969 19.9375 13.734375 19.824219 13.167969 C 19.773438 12.925781 19.800781 12.550781 19.84375 12.335938 C 19.945312 11.875 19.835938 11.578125 19.511719 11.304688 C 19.246094 11.085938 18.910156 11.027344 18.542969 11.027344 C 18.40625 11.027344 18.28125 10.964844 18.1875 10.914062 C 18.03125 10.839844 17.90625 10.644531 18.027344 10.410156 C 18.066406 10.332031 18.25 10.144531 18.296875 10.109375 C 18.796875 9.824219 19.371094 9.917969 19.90625 10.132812 C 20.398438 10.335938 20.773438 10.710938 21.3125 11.238281 C 21.863281 11.878906 21.960938 12.054688 22.273438 12.535156 C 22.519531 12.910156 22.746094 13.292969 22.898438 13.734375 C 22.992188 14.011719 22.871094 14.234375 22.546875 14.375 Z M 22.546875 14.375 "/>
<path style=" stroke:none;fill-rule:nonzero;fill:rgb(30.19608%,41.960785%,99.607843%);fill-opacity:1;" d="M 72.164062 8.960938 C 71.386719 8.960938 70.605469 9.132812 70.097656 9.617188 C 70.050781 9.660156 70.011719 9.703125 69.96875 9.75 L 69.597656 9.75 L 69.597656 8.960938 L 67.554688 8.960938 L 67.554688 21.339844 L 69.597656 21.339844 L 69.597656 13.648438 C 69.597656 12.855469 69.769531 12.058594 70.242188 11.542969 C 70.714844 11.019531 71.441406 10.835938 72.164062 10.835938 C 72.886719 10.835938 73.617188 11.019531 74.089844 11.542969 C 74.5625 12.058594 74.734375 12.855469 74.734375 13.648438 C 74.734375 14.4375 74.5625 15.234375 74.089844 15.753906 C 73.617188 16.277344 72.886719 16.460938 72.164062 16.460938 L 71.003906 16.460938 L 71.003906 18.332031 L 72.164062 18.332031 C 73.371094 18.332031 74.578125 18.023438 75.371094 17.15625 C 76.160156 16.292969 76.441406 14.96875 76.441406 13.648438 C 76.441406 12.332031 76.160156 11.003906 75.371094 10.136719 C 74.578125 9.269531 73.371094 8.960938 72.164062 8.960938 Z M 43.609375 13.972656 C 43.609375 14.765625 43.4375 15.5625 42.964844 16.082031 C 42.492188 16.601562 41.765625 16.789062 41.039062 16.789062 C 40.316406 16.789062 39.589844 16.601562 39.117188 16.082031 C 38.640625 15.5625 38.472656 14.765625 38.472656 13.972656 C 38.472656 13.183594 38.640625 12.386719 39.117188 11.867188 C 39.589844 11.347656 40.316406 11.164062 41.039062 11.164062 L 42.203125 11.164062 L 42.203125 9.289062 L 41.039062 9.289062 C 39.835938 9.289062 38.625 9.597656 37.835938 10.464844 C 37.046875 11.332031 36.765625 12.65625 36.765625 13.972656 C 36.765625 15.292969 37.046875 16.621094 37.835938 17.484375 C 38.625 18.351562 39.835938 18.660156 41.039062 18.660156 C 41.816406 18.660156 42.597656 18.484375 43.109375 18.003906 C 43.152344 17.964844 43.195312 17.917969 43.234375 17.875 L 43.609375 17.875 L 43.609375 18.660156 L 45.652344 18.660156 L 45.652344 6.277344 L 43.609375 6.277344 Z M 51.46875 8.960938 C 50.21875 8.960938 48.960938 9.285156 48.140625 10.179688 C 47.320312 11.074219 47.027344 12.445312 47.027344 13.8125 C 47.027344 15.175781 47.320312 16.550781 48.140625 17.445312 C 48.960938 18.339844 50.21875 18.660156 51.46875 18.660156 C 52.722656 18.660156 53.980469 18.339844 54.800781 17.445312 C 55.21875 16.984375 55.503906 16.398438 55.683594 15.746094 L 53.660156 15.746094 C 53.601562 15.832031 53.539062 15.917969 53.46875 15.992188 C 52.976562 16.53125 52.222656 16.722656 51.46875 16.722656 C 50.722656 16.722656 49.964844 16.53125 49.472656 15.992188 C 48.980469 15.453125 48.804688 14.628906 48.804688 13.8125 C 48.804688 12.992188 48.980469 12.167969 49.472656 11.628906 C 49.964844 11.09375 50.722656 10.902344 51.46875 10.902344 C 52.222656 10.902344 52.976562 11.09375 53.46875 11.628906 C 53.8125 12.003906 54 12.507812 54.085938 13.058594 L 50.472656 13.058594 L 50.472656 14.5625 L 55.914062 14.5625 L 55.914062 13.8125 C 55.914062 12.445312 55.621094 11.074219 54.800781 10.179688 C 53.980469 9.285156 52.722656 8.960938 51.46875 8.960938 Z M 61.734375 8.960938 C 60.484375 8.960938 59.222656 9.285156 58.40625 10.179688 C 57.585938 11.074219 57.289062 12.445312 57.289062 13.8125 C 57.289062 15.175781 57.585938 16.550781 58.40625 17.445312 C 59.222656 18.339844 60.484375 18.660156 61.734375 18.660156 C 62.984375 18.660156 64.242188 18.339844 65.0625 17.445312 C 65.488281 16.984375 65.765625 16.398438 65.945312 15.746094 L 63.921875 15.746094 C 63.867188 15.832031 63.800781 15.917969 63.734375 15.992188 C 63.238281 16.53125 62.484375 16.722656 61.734375 16.722656 C 60.984375 16.722656 60.230469 16.53125 59.734375 15.992188 C 59.242188 15.453125 59.066406 14.628906 59.066406 13.8125 C 59.066406 12.992188 59.242188 12.167969 59.734375 11.628906 C 60.230469 11.09375 60.984375 10.902344 61.734375 10.902344 C 62.484375 10.902344 63.238281 11.09375 63.734375 11.628906 C 64.074219 12.003906 64.261719 12.507812 64.347656 13.058594 L 60.734375 13.058594 L 60.734375 14.5625 L 66.179688 14.5625 L 66.179688 13.8125 C 66.179688 12.445312 65.882812 11.074219 65.0625 10.179688 C 64.246094 9.285156 62.984375 8.960938 61.734375 8.960938 Z M 85.589844 13.652344 C 84.769531 13.125 83.507812 12.9375 82.261719 12.9375 L 82.304688 12.9375 C 81.769531 12.9375 81.234375 12.863281 80.882812 12.65625 C 80.53125 12.453125 80.410156 12.136719 80.410156 11.824219 C 80.410156 11.511719 80.53125 11.199219 80.882812 10.992188 C 81.234375 10.785156 81.769531 10.714844 82.304688 10.714844 C 82.839844 10.714844 83.375 10.789062 83.722656 10.992188 C 84.074219 11.199219 84.199219 11.511719 84.199219 11.824219 L 86.28125 11.824219 C 86.28125 11.019531 86.015625 10.210938 85.273438 9.683594 C 84.53125 9.152344 83.390625 8.960938 82.261719 8.960938 C 81.128906 8.960938 79.992188 9.152344 79.25 9.683594 C 78.507812 10.210938 78.242188 11.019531 78.242188 11.824219 C 78.242188 12.628906 78.507812 13.441406 79.25 13.96875 C 79.992188 14.496094 81.128906 14.6875 82.261719 14.6875 C 82.847656 14.6875 83.492188 14.761719 83.878906 14.964844 C 84.265625 15.171875 84.40625 15.484375 84.40625 15.796875 C 84.40625 16.109375 84.265625 16.425781 83.878906 16.628906 C 83.492188 16.832031 82.898438 16.90625 82.308594 16.90625 C 81.71875 16.90625 81.125 16.832031 80.738281 16.628906 C 80.351562 16.421875 80.214844 16.109375 80.214844 15.796875 L 77.816406 15.796875 C 77.816406 16.601562 78.109375 17.414062 78.929688 17.941406 C 79.753906 18.46875 81.007812 18.65625 82.261719 18.65625 C 83.507812 18.65625 84.769531 18.46875 85.589844 17.941406 C 86.410156 17.414062 86.703125 16.601562 86.703125 15.796875 C 86.703125 14.992188 86.410156 14.179688 85.589844 13.652344 Z M 92.523438 8.960938 C 91.273438 8.960938 90.015625 9.285156 89.191406 10.179688 C 88.375 11.074219 88.078125 12.445312 88.078125 13.8125 C 88.078125 15.175781 88.375 16.550781 89.191406 17.445312 C 90.015625 18.339844 91.273438 18.660156 92.523438 18.660156 C 93.773438 18.660156 95.03125 18.339844 95.855469 17.445312 C 96.273438 16.984375 96.558594 16.398438 96.730469 15.746094 L 94.714844 15.746094 C 94.65625 15.832031 94.59375 15.917969 94.523438 15.992188 C 94.03125 16.53125 93.273438 16.722656 92.523438 16.722656 C 91.773438 16.722656 91.015625 16.53125 90.527344 15.992188 C 90.035156 15.453125 89.855469 14.628906 89.855469 13.8125 C 89.855469 12.992188 90.035156 12.167969 90.527344 11.628906 C 91.015625 11.09375 91.773438 10.902344 92.523438 10.902344 C 93.273438 10.902344 94.03125 11.09375 94.523438 11.628906 C 94.863281 12.003906 95.054688 12.507812 95.140625 13.058594 L 91.523438 13.058594 L 91.523438 14.5625 L 96.96875 14.5625 L 96.96875 13.8125 C 96.96875 12.445312 96.675781 11.074219 95.855469 10.179688 C 95.03125 9.285156 93.773438 8.960938 92.523438 8.960938 Z M 102.785156 8.960938 C 101.535156 8.960938 100.277344 9.285156 99.457031 10.179688 C 98.636719 11.074219 98.339844 12.445312 98.339844 13.8125 C 98.339844 15.175781 98.636719 16.550781 99.457031 17.445312 C 100.277344 18.339844 101.535156 18.660156 102.785156 18.660156 C 104.035156 18.660156 105.292969 18.339844 106.117188 17.445312 C 106.535156 16.984375 106.820312 16.398438 106.996094 15.746094 L 104.976562 15.746094 C 104.917969 15.832031 104.855469 15.917969 104.785156 15.992188 C 104.292969 16.53125 103.539062 16.722656 102.785156 16.722656 C 102.035156 16.722656 101.277344 16.53125 100.789062 15.992188 C 100.296875 15.453125 100.121094 14.628906 100.121094 13.8125 C 100.121094 12.992188 100.296875 12.167969 100.789062 11.628906 C 101.277344 11.09375 102.035156 10.902344 102.785156 10.902344 C 103.539062 10.902344 104.292969 11.09375 104.785156 11.628906 C 105.128906 12.003906 105.316406 12.507812 105.402344 13.058594 L 101.789062 13.058594 L 101.789062 14.5625 L 107.230469 14.5625 L 107.230469 13.8125 C 107.230469 12.445312 106.9375 11.074219 106.117188 10.179688 C 105.292969 9.285156 104.039062 8.960938 102.785156 8.960938 Z M 108.601562 5.84375 L 110.648438 5.84375 L 110.648438 18.660156 L 108.601562 18.660156 Z M 114.960938 9.390625 L 111.605469 13.523438 L 114.960938 18.660156 L 117.492188 18.660156 L 114.136719 13.523438 L 117.492188 9.390625 Z M 114.960938 9.390625 "/>
</g>
</svg>
